<svg width="512.003" height="512.003" xmlns="http://www.w3.org/2000/svg" stroke="#1e0e01" fill="#1e0e01" xml:space="preserve" version="1.1">
 <g id="Layer_1">
  <title>Layer 1</title>
  <g transform="rotate(-9 261.502 286.501)" stroke="null">
   <g stroke="null" stroke-width="0" id="svg_4"/>
   <g stroke="null" stroke-linejoin="round" stroke-linecap="round" id="svg_3"/>
   <g stroke="null" id="svg_2">
    <polygon stroke="null" fill="#f5a432" points="281.5120544433594,391.4693603515625 164.52342224121094,465.747802734375 236.02325439453125,349.029296875 "/>
    <g stroke="null">
     <polygon stroke="null" fill="#ffcf66" points="425.4564208984375,525.7713623046875 236.02325439453125,349.029296875 498.1882629394531,47.226531982421875 "/>
     <polygon stroke="null" fill="#ffcf66" points="164.52342224121094,294.7236022949219 24.812755584716797,221.13113403320312 498.1882629394531,47.226531982421875 "/>
    </g>
    <polygon stroke="null" fill="#fb9623" points="164.52342224121094,294.7236022949219 164.52342224121094,465.747802734375 236.02325439453125,349.029296875 498.1882629394531,47.226531982421875 "/>
    <path stroke="null" d="m411.29634,229.81815c-2.44361,0 -4.89502,-0.87503 -6.84387,-2.65044c-4.15775,-3.78369 -4.46259,-10.22269 -0.68078,-14.38251l0.15973,-0.17637c3.78181,-4.15884 10.21955,-4.46481 14.37535,-0.68015c4.15872,3.78369 4.46259,10.22269 0.68078,14.38251l-0.15973,0.17637c-2.00826,2.20902 -4.76549,3.33058 -7.53147,3.33058z"/>
    <path stroke="null" d="m322.7477,327.45259c-2.43972,0 -4.88723,-0.87211 -6.83608,-2.64069c-4.16262,-3.77979 -4.47428,-10.21879 -0.69734,-14.38154l66.42463,-73.23972c3.77596,-4.16469 10.2137,-4.47651 14.37437,-0.69866c4.16262,3.77882 4.47428,10.21879 0.69831,14.38154l-66.42463,73.23972c-2.00826,2.21292 -4.76841,3.33935 -7.53927,3.33935z"/>
    <path stroke="null" d="m502.46,37.98606c-2.51179,-1.16249 -5.30602,-1.21901 -7.77886,-0.31182c0,-0.00195 0,-0.00292 -0.00097,-0.00487l-473.37555,173.90364c-3.77499,1.38661 -6.38028,4.86823 -6.64519,8.88286c-0.26783,4.01463 1.85438,7.81001 5.41316,9.68481l134.27413,70.72765l0,164.88047c0,4.55933 3.02993,8.56227 7.41363,9.79979c0.9155,0.25822 1.84562,0.38295 2.76307,0.38295c1.94009,0 3.82077,-0.57394 5.44043,-1.60195c0.0039,0.00585 0.00779,0.00974 0.01364,0.01657l110.34736,-70.06114l138.19229,128.93491c1.91477,1.78612 4.40513,2.73521 6.94127,2.73521c1.12003,0 2.2498,-0.18514 3.34159,-0.56517c3.56462,-1.24044 6.15043,-4.35276 6.71824,-8.08675l72.73186,-478.54488c0.68078,-4.48041 -1.67907,-8.87019 -5.79007,-10.77227zm-67.09957,43.16897l-271.75837,201.57633l-113.78926,-59.93687l385.54762,-141.63946zm-260.66032,218.69405l254.62092,-188.86301l-200.97925,231.36352c-0.37594,0.43264 -0.69929,0.8916 -0.98952,1.36517c-0.00195,-0.00292 -0.0039,-0.0039 -0.00682,-0.00682l-52.6463,85.94232l0,-129.80118l0.00097,0zm21.44518,133.76221l42.04497,-68.63751l26.74925,24.95794l-68.79422,43.67957zm222.14783,71.55688l-168.14385,-156.88142l232.70339,-267.88301l-64.55953,424.76443z"/>
   </g>
  </g>
 </g>

</svg>